<svg version="1.1" xmlns="http://www.w3.org/2000/svg" xmlns:xlink="http://www.w3.org/1999/xlink" width="700" height="700" viewBox="610,134.5,700,700"><g id="document" fill="#ffffff" fill-rule="nonzero" stroke="#000000" stroke-width="0" stroke-linecap="butt" stroke-linejoin="miter" stroke-miterlimit="10" stroke-dasharray="" stroke-dashoffset="0" font-family="none" font-weight="none" font-size="none" text-anchor="none" style="mix-blend-mode: normal"><rect x="610" y="96.07143" transform="scale(1,1.4)" width="700" height="500" id="Shape 1 1" vector-effect="non-scaling-stroke"/></g><g fill-opacity="0" fill="#000000" fill-rule="nonzero" stroke="#000000" stroke-width="none" stroke-linecap="round" stroke-linejoin="round" stroke-miterlimit="10" stroke-dasharray="none" stroke-dashoffset="0" font-family="none" font-weight="none" font-size="none" text-anchor="none" style="mix-blend-mode: normal"><g id="stage"><g id="layer1 1"><path d="M662,475.51375c0,-162.64026 133.19529,-300.51375 297.5,-300.51375c164.30471,0 297.5,137.87349 297.5,300.51375c0,162.64026 -133.19529,294.48625 -297.5,294.48625c-164.30471,0 -297.5,-131.84599 -297.5,-294.48625z" id="Path 1" stroke-width="17" stroke-dasharray="0,34"/><path d="M812,489.01223c14.8995,2.89524 32.71911,9.45829 46.012,17.12025c47.76562,34.90963 73.38267,77.76734 82.20348,128.11834c5.13698,-80.51067 44.03524,-217.11591 101.19101,-276.2437c16.82737,-16.39948 40.15306,-39.24211 61.32822,-49.00387" id="Path 1" stroke-width="16" stroke-dasharray=""/></g></g></g></svg>