<?xml version="1.0" encoding="UTF-8"?>
<svg width="700pt" height="700pt" version="1.1" viewBox="0 0 700 700" xmlns="http://www.w3.org/2000/svg">
 <g>
  <path d="m353.42 246.98v174.1c0 1.8867-1.5312 3.418-3.418 3.418-0.33594 0-0.65625-0.046875-0.96484-0.13672l-173.87-35.488 0.67969-3.3359-0.68359 3.3477c-1.6328-0.33203-2.7539-1.7773-2.7344-3.3867v-95.535c0-1.8867 1.5312-3.418 3.418-3.418 0.33594 0 0.65625 0.046875 0.96484 0.13672l140.23 28.621 29.824-69.711 3.1367 1.3359-3.1406-1.3438c0.74219-1.7344 2.75-2.5391 4.4883-1.7969 1.3125 0.5625 2.0938 1.8477 2.0742 3.1914zm-6.8359 169.93v-153.32l-24.27 56.73c-0.55078 1.5977-2.2148 2.5742-3.9141 2.2305l0.003906-0.011719-139.13-28.398v88.621l167.32 34.148z"/>
  <path d="m176.8 208.1 63.684 13-0.67969 3.3359 0.68359-3.3477c0.80469 0.16406 1.4844 0.59766 1.9648 1.1875 4.4805 5.0664 10.008 9.1836 16.234 12 6.0312 2.7305 12.734 4.25 19.805 4.25 3.707 0 7.2891-0.41016 10.703-1.1836 3.5391-0.80469 6.9258-1.9961 10.113-3.5273l-0.003906-0.011718c0.78906-0.37891 1.6523-0.42969 2.4297-0.20313l48.945 9.9883-0.67969 3.3359 0.68359-3.3477c1.8477 0.37891 3.043 2.1836 2.6641 4.0312-0.066406 0.31641-0.17187 0.61719-0.3125 0.89062l-30.816 72.027-3.1367-1.3359 3.1406 1.3438c-0.6875 1.6055-2.4609 2.4141-4.0977 1.9375l-173.88-35.488 0.67969-3.3359-0.68359 3.3477c-1.8477-0.37891-3.043-2.1836-2.6641-4.0312 0.066406-0.31641 0.17187-0.61719 0.3125-0.89062l30.816-72.027 3.1367 1.3359-3.1406-1.3438c0.6875-1.6055 2.4609-2.4141 4.0977-1.9375zm61.207 19.445-60.121-12.27-28.18 65.875 167.33 34.152 28.18-65.875-44.016-8.9844c-3.3438 1.5195-6.8594 2.7148-10.512 3.5469-3.9531 0.89844-8.0352 1.3711-12.195 1.3711-8.0508 0-15.707-1.7383-22.609-4.8633-6.8164-3.0859-12.891-7.5156-17.875-12.953z"/>
  <path d="m353.42 263.59v153.32l167.32-34.148v-88.621l-139.13 28.398 0.003907 0.011719c-1.6992 0.34766-3.3633-0.63281-3.9141-2.2305l-24.27-56.73zm-6.8359 157.49v-174.1c-0.019531-1.3438 0.76172-2.6289 2.0742-3.1914 1.7344-0.74219 3.7461 0.0625 4.4883 1.7969l-3.1406 1.3438 3.1367-1.3359 29.824 69.711 140.23-28.621c0.30469-0.089844 0.62891-0.13672 0.96484-0.13672 1.8867 0 3.418 1.5312 3.418 3.418v95.535c0.019531 1.6055-1.1016 3.0547-2.7344 3.3867l-0.68359-3.3477 0.67969 3.3359-173.87 35.488c-0.30469 0.089844-0.62891 0.13672-0.96484 0.13672-1.8867 0-3.418-1.5312-3.418-3.418z"/>
  <path d="m522.11 215.28-167.33 34.152 28.184 65.875 167.33-34.152-28.18-65.875zm-172.11 31.652-0.67969-3.3359 173.88-35.488c1.6367-0.48047 3.4102 0.32812 4.0977 1.9375l-3.1406 1.3438 3.1367-1.3359 30.816 72.027c0.14062 0.27344 0.25 0.57422 0.3125 0.89062 0.37891 1.8477-0.81641 3.6562-2.6641 4.0312l-0.68359-3.3477 0.67969 3.3359-173.88 35.488c-1.6367 0.48047-3.4102-0.32812-4.0977-1.9375l3.1406-1.3438-3.1367 1.3359-30.816-72.027c-0.14062-0.27344-0.25-0.57422-0.3125-0.89062-0.37891-1.8477 0.81641-3.6562 2.6641-4.0312z"/>
  <path d="m175.17 208.04c-1.8438 0.375-3.0312 2.1758-2.6562 4.0195s2.1758 3.0312 4.0195 2.6562l52.168-10.648c1.8438-0.375 3.0312-2.1758 2.6562-4.0195s-2.1758-3.0312-4.0195-2.6562zm153.12-31.254c-1.8438 0.375-3.0312 2.1758-2.6562 4.0195s2.1758 3.0312 4.0195 2.6562l21.027-4.293c1.8438-0.375 3.0312-2.1758 2.6562-4.0195s-2.1758-3.0312-4.0195-2.6562z"/>
  <path d="m523.47 214.72c1.8438 0.375 3.6406-0.8125 4.0195-2.6562 0.375-1.8438-0.8125-3.6406-2.6562-4.0195l-174.15-35.543c-1.8438-0.375-3.6406 0.8125-4.0195 2.6562-0.375 1.8438 0.8125 3.6406 2.6562 4.0195z"/>
  <path d="m346.58 246.93c0 1.8867 1.5312 3.418 3.418 3.418s3.418-1.5312 3.418-3.418v-71.09c0-1.8867-1.5312-3.418-3.418-3.418s-3.418 1.5312-3.418 3.418z"/>
  <path d="m278.5 135.5c15.168 0 28.898 6.1484 38.84 16.09 9.9414 9.9414 16.09 23.672 16.09 38.84 0 15.168-6.1484 28.898-16.09 38.84-9.9414 9.9414-23.672 16.09-38.84 16.09-15.168 0-28.898-6.1484-38.84-16.09-9.9414-9.9414-16.09-23.672-16.09-38.84 0-15.168 6.1484-28.898 16.09-38.84s23.672-16.09 38.84-16.09zm34.008 20.922c-8.7031-8.7031-20.727-14.086-34.008-14.086s-25.305 5.3828-34.008 14.086-14.086 20.727-14.086 34.008 5.3828 25.305 14.086 34.008 20.727 14.086 34.008 14.086 25.305-5.3828 34.008-14.086 14.086-20.727 14.086-34.008-5.3828-25.305-14.086-34.008z"/>
  <path d="m273.04 193.87h10.91v-40.715h-10.91zm14.328 6.8359h-17.746c-1.8867 0-3.418-1.5312-3.418-3.418v-47.551c0-1.8867 1.5312-3.418 3.418-3.418h17.746c1.8867 0 3.418 1.5312 3.418 3.418v47.551c0 1.8867-1.5312 3.418-3.418 3.418z"/>
  <path d="m278.5 206.82c3.2969 0 6.2812 1.3359 8.4414 3.4961s3.4961 5.1445 3.4961 8.4414-1.3359 6.2812-3.4961 8.4414c-2.1602 2.1602-5.1445 3.4961-8.4414 3.4961s-6.2812-1.3359-8.4414-3.4961c-2.1602-2.1602-3.4961-5.1445-3.4961-8.4414s1.3359-6.2812 3.4961-8.4414c2.1602-2.1602 5.1445-3.4961 8.4414-3.4961zm3.6094 8.332c-0.92188-0.92188-2.1992-1.4961-3.6094-1.4961s-2.6875 0.57031-3.6094 1.4961c-0.92188 0.92187-1.4961 2.1992-1.4961 3.6094 0 1.4102 0.57031 2.6875 1.4961 3.6094 0.92188 0.92187 2.1992 1.4961 3.6094 1.4961s2.6875-0.57031 3.6094-1.4961c0.92188-0.92188 1.4961-2.1992 1.4961-3.6094 0-1.4102-0.57031-2.6875-1.4961-3.6094z"/>
 </g>
</svg>
